<svg width="35" height="35" viewBox="0 0 35 35" fill="none" xmlns="http://www.w3.org/2000/svg">
<g clip-path="url(#clip0_2469_23)">
<path d="M15.6041 21.3888C21.6445 21.3888 26.5416 23.674 26.5416 26.493V30.1388H4.66663V26.493C4.66663 23.674 9.56371 21.3888 15.6041 21.3888ZM25.0833 26.493C25.0833 24.4805 20.8395 22.8471 15.6041 22.8471C10.3687 22.8471 6.12496 24.4805 6.12496 26.493V28.6805H25.0833V26.493ZM15.6041 8.26379C16.9578 8.26379 18.2561 8.80155 19.2133 9.75877C20.1705 10.716 20.7083 12.0143 20.7083 13.368C20.7083 14.7217 20.1705 16.0199 19.2133 16.9772C18.2561 17.9344 16.9578 18.4721 15.6041 18.4721C14.2504 18.4721 12.9522 17.9344 11.9949 16.9772C11.0377 16.0199 10.5 14.7217 10.5 13.368C10.5 12.0143 11.0377 10.716 11.9949 9.75877C12.9522 8.80155 14.2504 8.26379 15.6041 8.26379ZM15.6041 9.72213C14.6372 9.72213 13.7099 10.1062 13.0261 10.79C12.3424 11.4737 11.9583 12.401 11.9583 13.368C11.9583 14.3349 12.3424 15.2622 13.0261 15.946C13.7099 16.6297 14.6372 17.0138 15.6041 17.0138C16.5711 17.0138 17.4984 16.6297 18.1821 15.946C18.8658 15.2622 19.25 14.3349 19.25 13.368C19.25 12.401 18.8658 11.4737 18.1821 10.79C17.4984 10.1062 16.5711 9.72213 15.6041 9.72213Z" fill="black"/>
<path d="M23.2637 15.1358V14.3305H28.0956V9.49854H28.9009V14.3305H33.7329V15.1358H28.9009V19.9677H28.0956V15.1358H23.2637Z" fill="black"/>
</g>
<defs>
<clipPath id="clip0_2469_23">
<rect width="35" height="35" fill="white"/>
</clipPath>
</defs>
</svg>
