<svg width="35" height="35" viewBox="0 0 35 35" fill="none" xmlns="http://www.w3.org/2000/svg">
<path d="M7.29163 4.375H26.25C27.4103 4.375 28.5231 4.83594 29.3436 5.65641C30.164 6.47688 30.625 7.58968 30.625 8.75V21.875C30.625 23.0353 30.164 24.1481 29.3436 24.9686C28.5231 25.7891 27.4103 26.25 26.25 26.25H19.562L14.156 31.656C13.9521 31.8599 13.6922 31.9988 13.4094 32.055C13.1265 32.1113 12.8334 32.0824 12.5669 31.972C12.3005 31.8617 12.0727 31.6748 11.9125 31.435C11.7523 31.1953 11.6667 30.9134 11.6666 30.625V26.25H7.29163C6.1313 26.25 5.01851 25.7891 4.19803 24.9686C3.37756 24.1481 2.91663 23.0353 2.91663 21.875V8.75C2.91663 7.58968 3.37756 6.47688 4.19803 5.65641C5.01851 4.83594 6.1313 4.375 7.29163 4.375ZM26.25 5.83333H7.29163C6.51808 5.83333 5.77621 6.14062 5.22923 6.6876C4.68225 7.23459 4.37496 7.97645 4.37496 8.75V21.875C4.37496 22.6485 4.68225 23.3904 5.22923 23.9374C5.77621 24.4844 6.51808 24.7917 7.29163 24.7917H13.125V30.625L18.9583 24.7917H26.25C27.0235 24.7917 27.7654 24.4844 28.3124 23.9374C28.8593 23.3904 29.1666 22.6485 29.1666 21.875V8.75C29.1666 7.97645 28.8593 7.23459 28.3124 6.6876C27.7654 6.14062 27.0235 5.83333 26.25 5.83333Z" fill="black"/>
</svg>
