<svg width="35" height="35" viewBox="0 0 35 35" fill="none" xmlns="http://www.w3.org/2000/svg">
<path d="M17.5 6.5625C17.5 6.36911 17.4232 6.18365 17.2864 6.0469C17.1497 5.91016 16.9642 5.83333 16.7708 5.83333C16.5774 5.83333 16.392 5.91016 16.2552 6.0469C16.1185 6.18365 16.0417 6.36911 16.0417 6.5625V8.78938C14.4372 8.96876 12.9552 9.73327 11.879 10.9367C10.8028 12.1401 10.208 13.6981 10.2083 15.3125V23.9371L7.89542 26.25H25.6462L23.3333 23.9371V15.3125C23.3336 13.6981 22.7388 12.1401 21.6627 10.9367C20.5865 9.73327 19.1044 8.96876 17.5 8.78938V6.5625ZM16.7708 4.375C17.351 4.375 17.9074 4.60547 18.3176 5.0157C18.7279 5.42594 18.9583 5.98234 18.9583 6.5625V7.59354C22.3256 8.54583 24.7917 11.6404 24.7917 15.3125V23.3333L29.1667 27.7083H4.375L8.75 23.3333V15.3125C8.75 13.5664 9.3196 11.8679 10.3724 10.4749C11.4251 9.08183 12.9035 8.07021 14.5833 7.59354V6.5625C14.5833 5.98234 14.8138 5.42594 15.224 5.0157C15.6343 4.60547 16.1907 4.375 16.7708 4.375ZM16.7708 32.0833C15.9304 32.0835 15.1156 31.7933 14.4645 31.2618C13.8135 30.7303 13.366 29.9902 13.1979 29.1667H14.7073C14.8576 29.594 15.1368 29.964 15.5065 30.2258C15.8761 30.4876 16.3179 30.6283 16.7708 30.6283C17.2238 30.6283 17.6656 30.4876 18.0352 30.2258C18.4048 29.964 18.6841 29.594 18.8344 29.1667H20.3437C20.1757 29.9902 19.7282 30.7303 19.0771 31.2618C18.426 31.7933 17.6113 32.0835 16.7708 32.0833Z" fill="black"/>
</svg>
