<svg width="40" height="40" viewBox="0 0 40 40" fill="none" xmlns="http://www.w3.org/2000/svg">
<path d="M15.8333 6.66669C17.9059 6.66664 19.935 7.26113 21.6799 8.37963C23.4248 9.49813 24.8122 11.0937 25.6775 12.977C26.5428 14.8603 26.8498 16.9523 26.5619 19.0048C26.274 21.0573 25.4034 22.9841 24.0533 24.5567L33.46 33.9634L32.2816 35.1417L22.8733 25.7333C21.5464 26.868 19.965 27.6652 18.2636 28.057C16.5622 28.4488 14.7914 28.4236 13.1019 27.9836C11.4123 27.5435 9.85421 26.7016 8.56016 25.5296C7.26612 24.3576 6.2745 22.8902 5.66977 21.2524C5.06504 19.6146 4.86511 17.8549 5.087 16.1231C5.3089 14.3914 5.94605 12.739 6.94419 11.3065C7.94233 9.87409 9.27188 8.70412 10.8196 7.89625C12.3674 7.08838 14.0874 6.66655 15.8333 6.66669ZM15.8333 8.33335C13.4022 8.33335 11.0706 9.29912 9.3515 11.0182C7.63242 12.7373 6.66665 15.0689 6.66665 17.5C6.66665 19.9312 7.63242 22.2627 9.3515 23.9818C11.0706 25.7009 13.4022 26.6667 15.8333 26.6667C18.2645 26.6667 20.596 25.7009 22.3151 23.9818C24.0342 22.2627 25 19.9312 25 17.5C25 15.0689 24.0342 12.7373 22.3151 11.0182C20.596 9.29912 18.2645 8.33335 15.8333 8.33335Z" fill="black"/>
</svg>
